<?xml version="1.0" encoding="UTF-8" standalone="no"?>
<svg
   viewBox="0 0 933.052 1052.3622"
   version="1.1"
   id="svg27"
   sodipodi:docname="meninas_oya.svg"
   inkscape:version="1.4 (e7c3feb1, 2024-10-09)"
   inkscape:export-filename="/Users/carolinaaranha/Downloads/meninasoya.pdf"
   inkscape:export-xdpi="96"
   inkscape:export-ydpi="96"
   width="24.687cm"
   height="27.84375cm"
   xmlns:inkscape="http://www.inkscape.org/namespaces/inkscape"
   xmlns:sodipodi="http://sodipodi.sourceforge.net/DTD/sodipodi-0.dtd"
   xmlns:xlink="http://www.w3.org/1999/xlink"
   xmlns="http://www.w3.org/2000/svg"
   xmlns:svg="http://www.w3.org/2000/svg">
  <defs
     id="defs27">
    <linearGradient
       id="swatch129"
       inkscape:swatch="solid">
      <stop
         style="stop-color:#3d6046;stop-opacity:1;"
         offset="0"
         id="stop129" />
    </linearGradient>
    <linearGradient
       id="swatch117"
       inkscape:swatch="solid">
      <stop
         style="stop-color:#3d6046;stop-opacity:1;"
         offset="0"
         id="stop117" />
    </linearGradient>
    <linearGradient
       id="swatch116"
       inkscape:swatch="solid">
      <stop
         style="stop-color:#3d6046;stop-opacity:1;"
         offset="0"
         id="stop116" />
    </linearGradient>
    <linearGradient
       id="swatch115"
       inkscape:swatch="solid">
      <stop
         style="stop-color:#3d6046;stop-opacity:1;"
         offset="0"
         id="stop115" />
    </linearGradient>
    <linearGradient
       id="swatch114"
       inkscape:swatch="solid">
      <stop
         style="stop-color:#3d6046;stop-opacity:1;"
         offset="0"
         id="stop114" />
    </linearGradient>
    <linearGradient
       id="swatch113"
       inkscape:swatch="solid">
      <stop
         style="stop-color:#3d6046;stop-opacity:1;"
         offset="0"
         id="stop113" />
    </linearGradient>
    <linearGradient
       id="swatch111"
       inkscape:swatch="solid">
      <stop
         style="stop-color:#3d6046;stop-opacity:1;"
         offset="0"
         id="stop111" />
    </linearGradient>
    <linearGradient
       id="swatch110"
       inkscape:swatch="solid">
      <stop
         style="stop-color:#ffffff;stop-opacity:1;"
         offset="0"
         id="stop110" />
    </linearGradient>
    <linearGradient
       id="swatch32"
       inkscape:swatch="solid">
      <stop
         style="stop-color:#3d6046;stop-opacity:1;"
         offset="0"
         id="stop32" />
    </linearGradient>
    <linearGradient
       id="swatch28"
       inkscape:swatch="solid">
      <stop
         style="stop-color:#3d6046;stop-opacity:1;"
         offset="0"
         id="stop28" />
    </linearGradient>
    <linearGradient
       id="swatch27"
       inkscape:swatch="solid">
      <stop
         style="stop-color:#3d6046;stop-opacity:1;"
         offset="0"
         id="stop27" />
    </linearGradient>
    <linearGradient
       inkscape:collect="always"
       xlink:href="#swatch27"
       id="linearGradient27"
       x1="647.59277"
       y1="437.06522"
       x2="715.39783"
       y2="437.06522"
       gradientUnits="userSpaceOnUse" />
    <linearGradient
       inkscape:collect="always"
       xlink:href="#swatch110"
       id="linearGradient110"
       x1="366.84097"
       y1="650.50372"
       x2="540.74182"
       y2="650.50372"
       gradientUnits="userSpaceOnUse" />
    <linearGradient
       inkscape:collect="always"
       xlink:href="#swatch110"
       id="linearGradient111"
       x1="366.84097"
       y1="650.50372"
       x2="540.74182"
       y2="650.50372"
       gradientUnits="userSpaceOnUse" />
    <linearGradient
       inkscape:collect="always"
       xlink:href="#swatch110"
       id="linearGradient113"
       x1="369.36127"
       y1="833.26404"
       x2="476.68912"
       y2="833.26404"
       gradientUnits="userSpaceOnUse"
       gradientTransform="matrix(0.95837064,0,0,1.1476597,22.537401,-103.29756)" />
    <linearGradient
       inkscape:collect="always"
       xlink:href="#swatch110"
       id="linearGradient115"
       x1="375.39517"
       y1="732.72742"
       x2="615.45209"
       y2="732.72742"
       gradientUnits="userSpaceOnUse"
       gradientTransform="matrix(0.98705368,0,0,1.0192443,1.2105253,-16.155656)" />
    <linearGradient
       inkscape:collect="always"
       xlink:href="#swatch110"
       id="linearGradient116"
       x1="545.94714"
       y1="479.42685"
       x2="620.32037"
       y2="479.42685"
       gradientUnits="userSpaceOnUse"
       gradientTransform="matrix(0.83089192,0,0,1.0006645,92.367794,-6.5634368)" />
    <linearGradient
       inkscape:collect="always"
       xlink:href="#swatch110"
       id="linearGradient117"
       x1="485.41617"
       y1="596.38177"
       x2="542.90009"
       y2="596.38177"
       gradientUnits="userSpaceOnUse"
       gradientTransform="matrix(1.0917645,0,0,1.0356666,-49.806567,-14.971243)" />
    <linearGradient
       inkscape:collect="always"
       xlink:href="#swatch110"
       id="linearGradient129"
       x1="483.23483"
       y1="680.11658"
       x2="605.54614"
       y2="680.11658"
       gradientUnits="userSpaceOnUse"
       gradientTransform="matrix(0.95491932,0,0,0.9936351,27.287733,3.6423163)" />
    <linearGradient
       inkscape:collect="always"
       xlink:href="#swatch32"
       id="linearGradient15"
       gradientUnits="userSpaceOnUse"
       gradientTransform="translate(-417.68273,-87.438547)"
       x1="396.5014"
       y1="549.05988"
       x2="1037.4954"
       y2="549.05988" />
  </defs>
  <sodipodi:namedview
     id="namedview27"
     pagecolor="#ffffff"
     bordercolor="#000000"
     borderopacity="0.25"
     inkscape:showpageshadow="2"
     inkscape:pageopacity="0.0"
     inkscape:pagecheckerboard="0"
     inkscape:deskcolor="#d1d1d1"
     inkscape:zoom="0.52938915"
     inkscape:cx="504.35488"
     inkscape:cy="476.96482"
     inkscape:window-width="1472"
     inkscape:window-height="630"
     inkscape:window-x="0"
     inkscape:window-y="37"
     inkscape:window-maximized="0"
     inkscape:current-layer="g14"
     inkscape:document-units="cm" />
  <g
     inkscape:groupmode="layer"
     id="layer1"
     inkscape:label="Layer 1">
    <g
       id="g15">
      <g
         id="g43"
         transform="matrix(1.1423238,0,0,1.1423238,43.418792,-107.33857)">
        <path
           d="m 387.14793,923.092 -8.7091,1.1945 1.5891,-6.7223 3.8077,-2.4336 -1.9055,-13.225 -4.1274,-0.8466 -4.4448,-8.1469 -0.63592,-7.512 -6.6666,-2.751 -10.475,-0.21177 -10.158,-5.925 -2.2229,-5.6076 -9.2058,-5.6076 -14.602,-2.1162 16.504,-18.304 1.2685,-8.1469 9.2036,-12.591 9.3633,-5.581 0.15854,-7.1681 16.664,-3.0418 32.534,0.76705 37.295,21.081 2.3804,17.589 -7.1417,16.637 -5.991,4.6354 -5.3562,9.3965 -3.7692,7.8094 -18.399,10.84 -3.4815,6.7134 -2.5293,10.84 -6.425,2.4719 -4.5205,5.9633 z"
           id="path1"
           style="fill:#ff6600;fill-opacity:1;fill-rule:evenodd;stroke:#000000;stroke-width:1.5;stroke-linejoin:round" />
        <path
           d="m 450.40793,845.082 -5.2868,1.9094 -2.4202,-17.12 -38.604,-21.564 -33.208,0.33724 -5.2768,0.65463 10.911,-6.3282 3.2931,-5.6934 -0.19838,-6.6456 24.559,-0.29756 9.0063,4.7809 8.6889,1.2895 6.4671,-3.1542 4.8801,-5.0586 18.528,-0.61497 15.037,-2.8368 -4.9594,8.2723 -0.84312,38.093 -7.5086,6.9878 -3.0649,6.9878 z"
           id="path2"
           style="fill:#3d6046;fill-opacity:1;fill-rule:evenodd;stroke:#3d6046;stroke-width:1.5;stroke-linejoin:round;stroke-opacity:1" />
        <path
           d="m 467.74793,783.672 3.2556,-1.9646 4.5278,-2.8252 -5.6504,-4.0226 -9.8415,-1.3284 -16.427,-34.857 -33.79,-15.398 -12.835,-0.72972 -27.504,24.417 0.33682,31.901 0.63613,3.4614 9.617,-0.43033 -0.26195,8.5505 24.585,-0.13097 7.2221,4.0601 10.515,1.9646 7.6524,-4.1069 4.0601,-4.7056 17.7,-0.13098 16.203,-3.7233 z"
           id="path3"
           style="fill:#3d6046;fill-opacity:1;fill-rule:evenodd;stroke:#000000;stroke-width:1.5;stroke-linejoin:round" />
        <path
           d="m 470.79793,775.072 5.033,3.2088 10.047,-9.4767 2.2639,-8.2792 9.748,-3.7888 14.837,-2.292 3.7607,-1.6933 1.3658,-4.6869 7.3531,0.10292 7.6524,-10.674 0.76712,-4.3875 -8.2137,-5.585 -11.207,4.8927 -7.9144,3.6952 -6.7169,-0.79516 -0.72968,-23.547 -10.609,-24.445 -27.373,-0.19647 -16.296,-10.973 -16.596,-1.3939 0.46776,8.485 -4.0227,0.40226 -9.7105,11.479 -1.3284,16.568 -15.398,10.581 12.442,0.70163 33.398,15.67 16.334,35.428 10.646,1.001 z"
           id="path4"
           style="fill:#ff6600;fill-opacity:1;fill-rule:evenodd;stroke:#000000;stroke-width:1.5;stroke-linejoin:round" />
        <path
           d="m 525.82793,748.052 6.7859,-10.841 0.67004,-3.9864 -7.7121,-6.082 7.8548,-0.69344 14.74,-0.9928 9.9502,-2.789 7.256,-3.9864 6.0586,-7.2794 6.0586,-8.7762 15.339,15.173 0.54259,9.5609 -3.1059,4.1536 -13.284,3.2556 -2.2078,5.9498 -2.5072,2.0581 -36.036,0.26194 -1.6091,4.453 -8.7937,0.5613 z"
           id="path5"
           style="fill:#3d6046;fill-opacity:1;fill-rule:evenodd;stroke:#000000;stroke-width:1.5;stroke-linejoin:round" />
        <path
           d="m 592.76793,717.292 1.4622,-2.112 3.1274,-1.2184 4.752,0.40615 1.8277,-4.4677 0.69045,-6.4172 3.4117,-4.3864 6.1735,-7.4732 2.2744,-11.21 -0.32492,-8.6104 2.2744,-7.6356 -1.2997,-5.6861 -6.4984,-1.4622 -8.6104,-2.9243 h -6.6609 l -0.64984,19.82 -3.0868,8.123 -4.5489,9.5852 -9.7476,1.1372 0.32492,9.5852 15.109,14.946 z"
           id="path6"
           style="fill:#3d6046;fill-opacity:1;fill-rule:evenodd;stroke:#000000;stroke-width:1.5;stroke-linejoin:round" />
        <path
           d="m 622.49793,658.062 -5.3888,-0.41452 -11.425,-10.803 -2.7203,-8.3163 13.861,-12.876 -2.3058,-5.8292 -17.643,-14.949 -11.425,0.38863 -14.741,-9.5599 -20.959,-0.85496 -1.8912,-9.5599 -20.959,14.897 -13.912,0.80312 1.0104,-69.666 -10.596,-0.0259 15.104,-18.265 9.3008,-0.0259 7.8176,13.051 15.279,-8.5042 7.8176,-8.0897 -8.1941,-10.493 41.134,-0.13034 9.2158,-8.4208 4.2416,0.69868 8.8013,11.891 19.579,-15.882 18.335,11.891 0.47839,15.58 9.1833,0.65731 -0.35067,6.4606 -9.8847,1.0718 0.0639,11.02 7.9398,7.2896 7.1107,2.3154 -1.4947,5.6264 -5.2254,3.1393 -0.66562,7.2845 -3.5673,3.1393 -3.9818,4.7974 -7.298,3.9683 -6.4689,0.65214 2.3521,6.7138 -0.54954,38.632 -4.6948,4.6412 -1.7931,5.4703 -1.3786,10.03 -2.6222,5.8848 -0.54954,13.346 -5.9383,1.3251 z"
           id="path7"
           style="fill:#ff6600;fill-opacity:1;fill-rule:evenodd;stroke:#000000;stroke-width:1.5;stroke-linejoin:round" />
        <path
           d="m 502.30793,592.642 10.073,-0.11427 0.96407,8.0282 13.942,-0.77764 20.941,-14.942 1.8886,9.6094 20.941,0.83318 14.775,9.5538 11.442,-0.38882 17.608,14.942 2.3329,5.8323 -13.886,12.887 2.7217,8.3318 11.442,11.192 -6.4988,-1.0276 -8.6096,-2.9439 h -6.6655 l -0.611,19.83 -3.1106,8.1097 -4.5547,9.6094 -9.7205,1.1109 0.24994,9.7483 -6.1933,8.9151 -6.0545,7.2765 -7.2209,3.9993 -9.9427,2.7773 -14.775,0.99982 -7.8319,0.66655 4.6103,3.666 -4.7769,-3.2772 -11.22,4.888 -7.8875,3.72164 -6.721,-0.7777 -0.72209,-23.55097 -10.609,-24.44 -27.384,-0.22218 -16.275,-10.998 -16.608,-1.3886 20.464,-18.624 35.393,-0.90274 1.2578,-16.916 9.6452,-15.736 0.67393,-18.659 6.486,0.0692 0.0282,-10.909 z"
           id="path8"
           style="fill:#3d6046;fill-opacity:1;fill-rule:evenodd;stroke:#000000;stroke-width:1.5;stroke-linejoin:round" />
        <path
           d="m 674.79793,535.912 -8.8686,7.6711 -6.1743,-2.5071 -8.2699,-6.6982 -1.0852,-11.488 10.889,-1.0103 9.3925,0.48645 12.685,1.9833 -8.5692,11.563 z"
           id="path9"
           style="fill:#3d6046;fill-opacity:1;fill-rule:evenodd;stroke:#000000;stroke-width:1.5;stroke-linejoin:round" />
        <path
           d="m 671.26793,522.452 12.309,1.5842 7.435,-1.5133 0.85537,-7.3034 7.435,-2.0397 5.3295,-10.988 0.85534,-4.9347 -13.883,4.2768 -13.094,1.3817 -5.5187,-2.0973 -4.2028,-3.6764 -3.15,-3.15 -3.6764,0.27141 -5.2555,3.1665 -4.4659,2.1137 0.008,15.01 9.4099,0.52739 -0.32796,6.8439 9.9363,0.52739 z"
           id="path10"
           style="fill:#3d6046;fill-opacity:1;fill-rule:evenodd;stroke:#000000;stroke-width:1.5;stroke-linejoin:round" />
        <path
           d="m 705.41793,497.192 4.7373,-2.895 3.6538,-9.5261 0.23235,-16.106 -8.4528,7.0546 -14.506,0.73816 -11.348,8.3706 -7.9264,-19.264 -12.927,10.213 -8.4528,-8.7365 -8.6687,10.379 -11.564,-12.255 -15.512,0.37833 -0.24673,12.485 -10.248,8.8003 1.0692,4.3261 8.7016,11.695 19.755,-15.939 18.176,12.748 10.544,-5.4118 4.4906,0.90471 6.5961,5.642 6.3329,1.9574 12.649,-1.7272 12.913,-3.8326 z"
           id="path11"
           style="fill:#3d6046;fill-opacity:1;fill-rule:evenodd;stroke:#000000;stroke-width:1.5;stroke-linejoin:round" />
        <path
           d="m 684.95793,457.562 0.14089,-9.1629 29.143,5.9347 -0.18551,14.816 -8.4528,7.0546 -14.506,0.73816 -11.348,8.3706 -7.9264,-19.264 -12.927,10.213 -8.4528,-8.7365 -7.2136,-15.833 5.3263,-7.0346 10.357,6.4778 15.944,-4.7283 0.94934,10.809 9.1518,0.34594 z"
           id="path12"
           style="fill:#3d6046;fill-opacity:1;fill-rule:evenodd;stroke:#000000;stroke-width:1.5;stroke-linejoin:round" />
        <path
           d="m 714.07793,454.162 0.56991,-8.7668 -3.6711,-5.162 -2.253,-13.929 -28.123,-0.35784 -13.492,-9.4759 -18.766,28.255 11.133,6.4144 15.161,-4.4 1.1663,10.443 9.2241,0.47711 0.31808,-9.4892 28.732,5.9904 z"
           id="path13"
           style="fill:url(#linearGradient27);fill-rule:evenodd;stroke:#000000;stroke-width:1.5;stroke-linejoin:round" />
        <path
           d="m 615.04793,465.612 -12.352,-79.703 c 28.75,-2.1823 49.23,13.871 64.622,30.349 l -24.014,35.438 7.1566,15.93 -8.1108,9.3566 -12.352,-11.848 -14.949,0.47713 z"
           id="path14"
           style="fill:#3d6046;fill-opacity:1;fill-rule:evenodd;stroke:#000000;stroke-width:1.5;stroke-linejoin:round" />
        <path
           d="m 527.99793,513.012 -9.2254,0.4268 0.31808,-23.263 c 6.114,-21.713 21.346,-34.944 41.879,-42.237 l 10.708,-0.25181 0.74218,-31.635 19.932,-32.814 10.39,2.5976 12.299,78.935 -0.21205,13.2 -10.814,8.1108 1.2723,5.3542 -4.241,-1.312 -9.3301,8.6542 -40.501,0.59639 7.8988,10.221 -8.2169,7.8888 -15.639,8.737 -7.2613,-13.209 z"
           id="path15"
           style="fill:#3d6046;fill-opacity:1;fill-rule:evenodd;stroke:#000000;stroke-width:1.5;stroke-linejoin:round" />
        <path
           d="m 491.25793,427.782 0.55715,37.373 8.9626,7.1548 9.2791,0.29652 -0.19801,9.0218 -9.1165,0.39182 0.85493,15.934 8.9127,15.56 7.8873,-0.51193 0.31808,-22.305 c 6.114,-21.713 21.346,-34.944 41.879,-42.237 l 10.708,-0.25181 0.74218,-31.635 19.932,-32.814 -29.494,-9.0978 -3.295,4.5643 -5.9098,-1.4942 -9.315,-11.981 -5.9794,-1.5103 -9.8779,-6.3084 -4.7799,-2.7098 -8.4671,-1.0523 -13.265,43.03 -23.761,21.739 13.424,8.8438 z"
           id="path16"
           style="fill:#ff6600;fill-opacity:1;fill-rule:evenodd;stroke:#000000;stroke-width:1.5;stroke-linejoin:round" />
        <path
           d="m 480.99793,428.012 h -13.162 l 10.571,-9.3812 12.532,9.1012 1.0501,37.105 9.4512,7.701 8.6111,-0.14001 -0.07,9.3812 -9.3112,-0.14002 0.72634,15.314 8.5674,16.435 8.9656,-0.64758 -15.354,18.395 10.248,-0.0875 -0.11376,22.315 -20.556,11.114 -18.007,0.16408 -7.6452,-6.8368 -5.4049,-0.11594 -5.6849,8.0051 -11.286,-5.4366 -0.64431,-16.638 -8.7654,8.8452 -3.3115,-0.44904 0.049,-16.411 7.3299,-30.413 19.965,-27.346 11.004,-29.866 6.5231,-13.064 3.7227,-6.9031 z"
           id="path17"
           style="fill:#3d6046;fill-opacity:1;fill-rule:evenodd;stroke:#000000;stroke-width:1.5;stroke-linejoin:round" />
        <path
           d="m 495.37793,615.992 0.33445,-12.618 -20.948,-3.4965 -0.51687,16.692 21.131,-0.57768 z"
           id="path18"
           style="fill:#3d6046;fill-opacity:1;fill-rule:evenodd;stroke:none;stroke-width:1.5;stroke-linejoin:round;stroke-opacity:1" />
        <path
           d="m 433.21793,561.522 -0.68719,-9.7716 3.3327,0.44437 8.7762,-8.8318 0.611,16.608 11.331,5.4435 5.6656,-7.9986 5.3879,0.11109 7.6653,6.8321 17.997,-0.16663 20.496,-11.109 -0.611,44.436 -0.66655,-5.2768 -10.054,0.11109 -0.0555,10.942 -6.4433,-0.11109 -0.33327,9.2206 0.22218,-9.3317 -20.941,-3.4994 -0.49991,16.719 21.052,-0.55545 -0.22218,6.11 -9.6094,15.775 -1.2776,16.886 -35.383,0.88873 -20.441,18.663 -34.555,-26.719 -0.17305,-29.182 36.726,-49.087 2.6887,-7.5511 z"
           id="path19"
           style="fill:#3d6046;fill-opacity:1;fill-rule:evenodd;stroke:#000000;stroke-width:1.5;stroke-linejoin:round" />
        <path
           d="m 428.70793,674.112 -0.11109,9.165 -3.9993,0.38882 -9.7205,11.498 -1.3331,16.553 -15.386,10.609 -28.495,24.662 -14.76,4.6252 0.77045,-21.236 -6.606,-0.0902 -1.1966,-5.2537 -6.8519,-0.0902 0.26251,-3.3819 -27.768,0.0605 -2.6881,-5.349 2.7213,-11.742 -0.54941,-45.09 4.9747,-12.596 7.1877,-10.137 4.2371,-4.4816 18.498,0.43606 12.058,8.6008 13.287,-0.005 5.9105,-5.6604 2.7685,-1.9683 0.0638,13.522 12.176,0.24334 34.549,26.717 z"
           id="path20"
           style="fill:#3d6046;fill-opacity:1;fill-rule:evenodd;stroke:#000000;stroke-width:1.5;stroke-linejoin:round" />
        <path
           d="m 263.93793,578.552 -2.1346,-6.8033 17.05,-31.733 -8.5787,-0.56001 -6.2306,-8.6421 8.2642,-0.26072 -0.15487,-6.7369 -26.707,0.0631 -0.47866,-37.175 51.655,0.3869 9.5594,-28.108 12.798,29.854 120.77,16.298 -7.332,30.439 -0.0555,16.386 h 0.11109 l 0.66654,9.5538 -2.6662,7.4986 -36.716,49.102 0.16664,29.217 0.0555,0.0555 -12.053,-0.27772 -0.0556,-13.498 -2.7773,1.9441 -5.8878,5.6656 h -13.331 l -12.053,-8.6096 -18.497,-0.44437 -4.2215,4.4992 -7.1654,10.165 -2.0717,5.1144 -3.6725,-3.3058 -3.789,-14.553 -6.9957,-5.7294 -2.1385,-4.1104 -0.84327,-7.9961 -28.043,0.0992 -2.177,-12.898 -5.3082,-8.6938 4.0191,-3.3953 3.4541,-0.59699 -0.67603,-10.228 -5.7533,-1.9856 z"
           id="path21"
           style="fill:#3d6046;fill-opacity:1;fill-rule:evenodd;stroke:#000000;stroke-width:1.5;stroke-linejoin:round" />
        <path
           d="m 342.97793,289.602 13.759,0.70537 7.6335,-2.1915 0.53297,15.351 12.228,0.73226 35.2,48.347 8.8865,0.31459 0.53297,-13.051 22.252,-20.987 2.6214,12.845 9.0756,0.0823 2.2858,3.5498 20.209,1.3324 -7.4539,9.9845 -0.45807,9.7775 4.8693,3.4561 5.2783,-3.5881 3.4785,-11.289 24.043,-0.2157 7.011,9.8042 -13.275,42.992 -23.774,21.774 0.11109,0.1111 -10.109,8.9428 h 13.164 l -3.7216,6.9432 -6.4988,13.053 -10.998,29.828 -20.496,27.19 -120.31,-16.192 -12.775,-29.828 -7.8831,-10.32 41.902,-81.835 -37.589,-14.811 -11.764,-25.951 5.2626,-18.89 14.869,-0.93022 5.2626,-4.6893 26.146,-1.3479 0.49488,-10.999 z"
           id="path22"
           style="fill:#3d6046;fill-opacity:1;fill-rule:evenodd;stroke:#000000;stroke-width:1.5;stroke-linejoin:round" />
        <path
           d="m 364.43793,288.482 0.53297,15.351 12.228,0.73226 35.2,48.347 8.8865,0.31459 0.53297,-13.051 22.252,-20.987 4.6838,-8.2121 1.2029,-6.46 -6.1773,-9.3941 -10.895,-0.90305 -10.266,-37.697 -3.9029,-0.46163 -18.369,36.333 -35.91,-3.9114 z"
           id="path23"
           style="fill:#3d6046;fill-opacity:1;fill-rule:evenodd;stroke:#000000;stroke-width:1.5;stroke-linejoin:round" />
        <path
           d="m 269.40793,237.322 -6.5349,-0.0322 -10.223,15.284 -9.7018,1.3666 -3.5863,4.4722 -11.94,0.66898 -2.5443,6.2906 -4.2073,-2.8561 -10.095,0.0136 -5.5212,-5.3913 -10.095,-3.3125 -9.9033,-2.803 12.963,12.58 2.1536,24.637 12.491,-0.18105 8.7496,7.7184 0.43448,8.5499 7.382,8.8642 -0.51737,4.7066 -7.5852,10.943 9.4608,10.111 0.31418,9.28 9.0451,6.7854 4.8875,-1.114 5.4834,-14.414 11.304,-0.69426 9.2252,-13.167 19.985,1.023 5.5154,-19.022 -13.764,-1.0552 -1.604,-6.068 -9.6473,-7.9709 3.8702,-42.687 -3.9029,-1.2931 0.33999,-8.1533 -2.2332,-3.0799 z"
           id="path24"
           style="fill:#3d6046;fill-opacity:1;fill-rule:evenodd;stroke:#000000;stroke-width:1.5;stroke-linejoin:round" />
        <path
           d="m 232.87793,563.652 29.168,8.5221 17.05,-32.372 -8.5787,-0.56001 -6.2306,-8.6421 8.2642,-0.26071 -0.15487,-6.737 -26.707,0.70195 -0.47867,-37.175 -7.1898,-0.78265 -12.711,-15.051 -11.406,-0.0521 -47.274,31.251 7.1798,0.27397 5.5682,2.0741 2.6335,3.7045 -2.5837,9.2478 0.56118,10.871 7.2798,10.626 7.367,6.9027 15.954,8.6841 22.289,8.7748 z"
           id="path25"
           style="fill:#3d6046;fill-opacity:1;fill-rule:evenodd;stroke:#000000;stroke-width:1.5;stroke-linejoin:round" />
        <path
           d="m 211.94793,296.302 0.69986,-8.3554 8.7762,7.6653 0.44437,8.554 7.332,8.8873 -0.49991,4.7214 -7.5542,10.942 9.4428,10.109 0.33327,9.2761 8.9984,6.7766 4.888,-1.1109 5.499,-14.442 11.331,-0.66655 9.2206,-13.164 19.996,0.99982 1.4442,-4.9991 -1.3331,4.8325 11.72,25.94 37.604,14.831 -41.881,81.819 7.7208,10.109 -9.4983,27.939 -51.657,-0.38882 v 0.38882 l -6.9432,-0.77764 -12.72,-15.053 -11.387,-0.0555 -47.325,31.272 -9.0341,4.9535 -122.839997,-50.41 1.9508,-3.395 1.072,-21.85 5.5424,-0.2056 1.1485,-12.069 8.6182,-0.2056 4.7909,-7.5211 10.064,0.8274 7.6788,-9.4598 17.345,0.64625 9.875797,-29.233 -3.023497,-17.964 -0.38714,-18.403 -7.4174,-8.7362 0.49166,-10.494 14.457997,0.388 0.19993,-6.0951 -9.027397,-0.38299 2.396897,-14.444 25.499,-0.68083 0.45386,-3.3172 3.0902,-0.24145 2.6508,4.1525 2.706,-0.60001 8.3617,-6.9794 0.78668,13.31 6.3579,8.875 29.457,-0.8788 19.776,-8.064 1.2071,-7.5808 11.095,0.006 z"
           id="path26"
           style="fill:#3d6046;fill-opacity:1;fill-rule:evenodd;stroke:#000000;stroke-width:1.5;stroke-linejoin:round" />
        <path
           d="m 32.555934,455.492 2.866,1.0422 119.589996,49.959 -5.4714,4.6246 -1.3027,5.9274 -6.8393,0.51294 -0.0651,5.2027 -5.0154,1.8157 -1.3678,-2.8741 -1.6284,2.5973 0.1954,6.766 -46.180996,0.2524 -0.34196,-26.382 -8.6794,2.5383 -4.2501,5.4042 -15.002,0.37402 -0.67172,-8.4844 -9.5302,-0.14707 -13.846,-15.279 -0.03765,-7.9833 -6.8118,-4.8568 0.37199,-21.188 4.0196,0.17703 z"
           id="path27"
           style="fill:#3d6046;fill-opacity:1;fill-rule:evenodd;stroke:#000000;stroke-width:1.5;stroke-linejoin:round" />
      </g>
      <g
         id="g14"
         transform="translate(112.64699,-43.5227)">
        <text
           xml:space="preserve"
           style="font-size:18.6667px;font-family:Sans;-inkscape-font-specification:'Sans, Normal';text-align:center;writing-mode:lr-tb;direction:ltr;text-anchor:middle;fill:#3d6046;fill-opacity:1;stroke:url(#linearGradient15);stroke-width:0.710551"
           x="299.77563"
           y="469.05466"
           id="text28"><tspan
             sodipodi:role="line"
             id="tspan28"
             x="299.77563"
             y="469.05466"
             style="font-style:normal;font-variant:normal;font-weight:bold;font-stretch:normal;font-size:17.3333px;font-family:Sans;-inkscape-font-specification:'Sans, Bold';font-variant-ligatures:normal;font-variant-caps:normal;font-variant-numeric:normal;font-variant-east-asian:normal;fill:#ffffff;stroke:url(#linearGradient15)">Tecendo Redes de Empoderamento </tspan><tspan
             sodipodi:role="line"
             x="299.77563"
             y="492.38803"
             style="font-style:normal;font-variant:normal;font-weight:bold;font-stretch:normal;font-size:17.3333px;font-family:Sans;-inkscape-font-specification:'Sans, Bold';font-variant-ligatures:normal;font-variant-caps:normal;font-variant-numeric:normal;font-variant-east-asian:normal;fill:#ffffff;stroke:url(#linearGradient15)"
             id="tspan36">e Resistências de Meninas e Mulheres</tspan><tspan
             sodipodi:role="line"
             x="299.77563"
             y="515.72144"
             style="font-style:normal;font-variant:normal;font-weight:bold;font-stretch:normal;font-size:17.3333px;font-family:Sans;-inkscape-font-specification:'Sans, Bold';font-variant-ligatures:normal;font-variant-caps:normal;font-variant-numeric:normal;font-variant-east-asian:normal;fill:#ffffff;stroke:url(#linearGradient15)"
             id="tspan37">nas Ciências Exatas, </tspan><tspan
             sodipodi:role="line"
             x="299.77563"
             y="539.05481"
             style="font-style:normal;font-variant:normal;font-weight:bold;font-stretch:normal;font-size:17.3333px;font-family:Sans;-inkscape-font-specification:'Sans, Bold';font-variant-ligatures:normal;font-variant-caps:normal;font-variant-numeric:normal;font-variant-east-asian:normal;fill:#ffffff;stroke:url(#linearGradient15)"
             id="tspan38">Engenharias e Computação</tspan></text>
        <text
           xml:space="preserve"
           style="font-size:53.3333px;font-family:Sans;-inkscape-font-specification:'Sans, Normal';text-align:center;writing-mode:lr-tb;direction:ltr;text-anchor:middle;fill:#3d6046;fill-opacity:1;stroke:#3d6046;stroke-width:0.710551;stroke-opacity:1"
           x="257.60913"
           y="423.65414"
           id="text31"><tspan
             sodipodi:role="line"
             id="tspan31"
             x="266.98413"
             y="423.65414"
             style="font-size:53.3333px;fill:#ffffff"><tspan
   style="font-style:normal;font-variant:normal;font-weight:normal;font-stretch:normal;font-size:60px;font-family:'Bangla MN';-inkscape-font-specification:'Bangla MN, Normal';font-variant-ligatures:normal;font-variant-caps:normal;font-variant-numeric:normal;font-variant-east-asian:normal"
   id="tspan30">Meninas Oyá</tspan> </tspan></text>
        <path
           style="fill:url(#linearGradient110);fill-opacity:1;stroke:url(#linearGradient111);stroke-width:3.40157;stroke-dasharray:6.80315, 6.80315;stroke-dashoffset:0;stroke-opacity:1"
           d="M 539.13748,407.99593 368.44531,893.0115"
           id="path109" />
        <path
           style="fill:#ffffff;fill-opacity:1;stroke:url(#linearGradient113);stroke-width:3.56741;stroke-dasharray:7.13482, 7.13482;stroke-dashoffset:0"
           d="M 377.63953,909.63087 479.38227,794.95972"
           id="path113" />
        <path
           style="fill:#ffffff;fill-opacity:1;stroke:url(#linearGradient115);stroke-width:3.32628;stroke-dasharray:6.65259, 6.65259;stroke-dashoffset:0"
           d="M 373.06707,896.19298 607.37339,565.15187"
           id="path114" />
        <path
           style="fill:#ffffff;fill-opacity:1;stroke:url(#linearGradient116);stroke-width:3.10167;stroke-dasharray:6.20335, 6.20335;stroke-dashoffset:0"
           d="m 547.25115,401.70362 60.53581,143.72667"
           id="path115" />
        <path
           style="fill:#ffffff;fill-opacity:1;stroke:url(#linearGradient117);stroke-width:3.61705;stroke-dasharray:7.2341, 7.2341;stroke-dashoffset:0"
           d="M 481.98881,784.85131 541.07718,420.51166"
           id="path116" />
        <path
           style="fill:#ffffff;fill-opacity:1;stroke:url(#linearGradient129);stroke-width:3.31342;stroke-dasharray:6.62685, 6.62685;stroke-dashoffset:0"
           d="M 490.14814,784.06808 605.53543,573.95345"
           id="path129" />
        <g
           id="g120"
           transform="matrix(0.13185778,0,0,0.14286507,432.57169,296.04478)"
           style="fill:#3d6046;fill-opacity:1">
          <path
             d="m 374.2,3352.5 c -21.1,4.6 -40.6,21.6 -62,53.8 -20.2,30.6 -30.2,55.8 -30.2,76.5 0,14.9 4,24.4 14.3,33.8 17,15.6 48.8,22.9 94.7,21.9 41,-0.9 66.9,-8.2 81.5,-22.9 8.5,-8.5 13.5,-20.3 13.5,-31.7 0,-17.5 -9.5,-43.4 -25.8,-70.3 -22.3,-36.7 -45.5,-57.6 -68.3,-61.5 -8,-1.3 -9.7,-1.3 -17.7,0.4 z"
             id="path119"
             style="fill:#3d6046;fill-opacity:1;stroke-width:0.1" />
          <path
             style="display:inline;fill:#3d6046;fill-opacity:1;stroke-width:0.1"
             d="m 371,3212.4 c -42.1,9 -65.6,49.3 -50.4,86.7 11.3,27.8 42.4,45.3 72.8,41 27.1,-3.8 48.1,-20.2 56.9,-44.4 1.8,-5.2 2.2,-8.3 2.2,-19.7 0,-12.3 -0.2,-14.2 -2.8,-21 -7.3,-19.8 -25.2,-35.8 -46.2,-41.5 -8.4,-2.2 -24.5,-2.8 -32.5,-1.1 z"
             id="path120" />
        </g>
        <g
           id="g124"
           transform="matrix(0.13185778,0,0,0.14286507,559.76438,78.464864)"
           style="fill:#3d6046;fill-opacity:1">
          <path
             d="m 374.2,3352.5 c -21.1,4.6 -40.6,21.6 -62,53.8 -20.2,30.6 -30.2,55.8 -30.2,76.5 0,14.9 4,24.4 14.3,33.8 17,15.6 48.8,22.9 94.7,21.9 41,-0.9 66.9,-8.2 81.5,-22.9 8.5,-8.5 13.5,-20.3 13.5,-31.7 0,-17.5 -9.5,-43.4 -25.8,-70.3 -22.3,-36.7 -45.5,-57.6 -68.3,-61.5 -8,-1.3 -9.7,-1.3 -17.7,0.4 z"
             id="path123"
             style="fill:#3d6046;fill-opacity:1;stroke-width:0.1" />
          <path
             style="display:inline;fill:#3d6046;fill-opacity:1;stroke-width:0.1"
             d="m 371,3212.4 c -42.1,9 -65.6,49.3 -50.4,86.7 11.3,27.8 42.4,45.3 72.8,41 27.1,-3.8 48.1,-20.2 56.9,-44.4 1.8,-5.2 2.2,-8.3 2.2,-19.7 0,-12.3 -0.2,-14.2 -2.8,-21 -7.3,-19.8 -25.2,-35.8 -46.2,-41.5 -8.4,-2.2 -24.5,-2.8 -32.5,-1.1 z"
             id="path124" />
        </g>
        <g
           id="g126"
           transform="matrix(0.13185778,0,0,0.14286507,492.48148,-82.190233)"
           style="fill:#3d6046;fill-opacity:1">
          <path
             d="m 374.2,3352.5 c -21.1,4.6 -40.6,21.6 -62,53.8 -20.2,30.6 -30.2,55.8 -30.2,76.5 0,14.9 4,24.4 14.3,33.8 17,15.6 48.8,22.9 94.7,21.9 41,-0.9 66.9,-8.2 81.5,-22.9 8.5,-8.5 13.5,-20.3 13.5,-31.7 0,-17.5 -9.5,-43.4 -25.8,-70.3 -22.3,-36.7 -45.5,-57.6 -68.3,-61.5 -8,-1.3 -9.7,-1.3 -17.7,0.4 z"
             id="path125"
             style="fill:#3d6046;fill-opacity:1;stroke-width:0.1" />
          <path
             style="display:inline;fill:#3d6046;fill-opacity:1;stroke-width:0.1"
             d="m 371,3212.4 c -42.1,9 -65.6,49.3 -50.4,86.7 11.3,27.8 42.4,45.3 72.8,41 27.1,-3.8 48.1,-20.2 56.9,-44.4 1.8,-5.2 2.2,-8.3 2.2,-19.7 0,-12.3 -0.2,-14.2 -2.8,-21 -7.3,-19.8 -25.2,-35.8 -46.2,-41.5 -8.4,-2.2 -24.5,-2.8 -32.5,-1.1 z"
             id="path126" />
        </g>
        <g
           id="g128"
           transform="matrix(0.13185778,0,0,0.14286507,326.84141,419.62562)"
           style="fill:#3d6046;fill-opacity:1">
          <path
             d="m 374.2,3352.5 c -21.1,4.6 -40.6,21.6 -62,53.8 -20.2,30.6 -30.2,55.8 -30.2,76.5 0,14.9 4,24.4 14.3,33.8 17,15.6 48.8,22.9 94.7,21.9 41,-0.9 66.9,-8.2 81.5,-22.9 8.5,-8.5 13.5,-20.3 13.5,-31.7 0,-17.5 -9.5,-43.4 -25.8,-70.3 -22.3,-36.7 -45.5,-57.6 -68.3,-61.5 -8,-1.3 -9.7,-1.3 -17.7,0.4 z"
             id="path127"
             style="fill:#3d6046;fill-opacity:1;stroke-width:0.1" />
          <path
             style="display:inline;fill:#3d6046;fill-opacity:1;stroke-width:0.1"
             d="m 371,3212.4 c -42.1,9 -65.6,49.3 -50.4,86.7 11.3,27.8 42.4,45.3 72.8,41 27.1,-3.8 48.1,-20.2 56.9,-44.4 1.8,-5.2 2.2,-8.3 2.2,-19.7 0,-12.3 -0.2,-14.2 -2.8,-21 -7.3,-19.8 -25.2,-35.8 -46.2,-41.5 -8.4,-2.2 -24.5,-2.8 -32.5,-1.1 z"
             id="path128" />
        </g>
      </g>
    </g>
  </g>
  <g
     inkscape:groupmode="layer"
     id="layer2"
     inkscape:label="Layer 2" />
</svg>
